<svg xmlns="http://www.w3.org/2000/svg" viewBox="0 0 256 256" role="img" aria-labelledby="title desc">
    <title id="title">Instituto Tecnologico de Piedras Negras</title>
    <desc id="desc">Escudo institucional circular del Tecnologico de Piedras Negras.</desc>
    <defs>
        <path id="outerText" d="M128 128 m -104 0 a 104 104 0 1 1 208 0 a 104 104 0 1 1 -208 0" />
        <path id="innerText" d="M128 128 m -67 0 a 67 67 0 1 1 134 0 a 67 67 0 1 1 -134 0" />
    </defs>

    <circle cx="128" cy="128" r="124" fill="#fff" />
    <circle cx="128" cy="128" r="118" fill="#f4ef21" stroke="#0b1688" stroke-width="8" />
    <circle cx="128" cy="128" r="86" fill="#fff" stroke="#0b1688" stroke-width="3" />

    <text font-family="Arial, Helvetica, sans-serif" font-size="15" font-weight="700" fill="#0b1688" letter-spacing="1.5">
        <textPath href="#outerText" startOffset="3%">
            INSTITUTO TECNOLOGICO DE PIEDRAS NEGRAS
        </textPath>
    </text>

    <text font-family="Arial, Helvetica, sans-serif" font-size="7.6" font-weight="700" fill="#0b1688" letter-spacing="1.3">
        <textPath href="#innerText" startOffset="13%">
            TECNICA Y HUMANISMO PARA REALIZAR EL ESPIRITU
        </textPath>
    </text>

    <g fill="none" stroke="#0b1688" stroke-width="2">
        <ellipse cx="128" cy="115" rx="39" ry="22" />
        <ellipse cx="128" cy="115" rx="39" ry="22" transform="rotate(60 128 115)" />
        <ellipse cx="128" cy="115" rx="39" ry="22" transform="rotate(-60 128 115)" />
        <circle cx="128" cy="115" r="4" fill="#0b1688" />
    </g>

    <g fill="#0b1688">
        <path d="M91 119c9-18 24-26 43-23 15 3 27 11 34 24-13-10-25-14-38-12-15 2-27 7-39 11Z" opacity=".95" />
        <path d="M94 124c10-6 19-8 29-5 7 2 12 7 17 12 6-7 15-10 27-8-10 10-22 17-37 17-15 0-27-5-36-16Z" opacity=".95" />
    </g>

    <path
        d="M139 82c11 7 18 18 21 32 3 11 10 19 20 25-6 4-13 7-22 7 4 11 3 20-3 27-8 10-22 15-40 15H88c5-11 8-22 8-34 0-9-3-16-8-23 11-7 17-18 18-33 10 10 21 16 33 16V82Z"
        fill="#fff"
        stroke="#0b1688"
        stroke-width="3"
        stroke-linejoin="round"
    />

    <path
        d="M121 92c6 4 11 11 13 19 2 8 8 15 16 18-6 4-11 7-16 9 4 6 4 13 0 20-5 7-14 11-27 11"
        fill="none"
        stroke="#0b1688"
        stroke-width="2"
        stroke-linecap="round"
    />

    <text x="128" y="224" text-anchor="middle" font-family="Arial, Helvetica, sans-serif" font-size="23" font-weight="800" fill="#0b1688">
        1976
    </text>
</svg>
