<svg xmlns="http://www.w3.org/2000/svg" viewBox="0 0 64 64">
    <circle cx="32" cy="32" r="30" fill="#f4ef21" stroke="#0b1688" stroke-width="4" />
    <circle cx="32" cy="32" r="20" fill="#fff" stroke="#0b1688" stroke-width="1.5" />
    <path
        d="M35 18c5 4 8 9 9 15 1 5 4 8 8 11-3 2-6 3-10 3 2 5 1 9-2 12-4 4-10 6-18 6h-7c2-6 3-10 3-15 0-4-1-7-4-10 5-3 8-8 8-15 4 4 8 6 13 6V18Z"
        fill="#fff"
        stroke="#0b1688"
        stroke-width="2"
        stroke-linejoin="round"
    />
    <text x="32" y="56" text-anchor="middle" font-family="Arial, Helvetica, sans-serif" font-size="8" font-weight="800" fill="#0b1688">1976</text>
</svg>
